{
  "accessors": [
    {
      "bufferView": 2,
      "componentType": 5126,
      "count": 65532,
      "max": [
        2.789757013320923,
        31.478412628173828,
        -0.2981489896774292
      ],
      "min": [
        -15.781671524047852,
        1.7091469764709473,
        -18.074325561523438
      ],
      "type": "VEC3"
    },
    {
      "bufferView": 2,
      "byteOffset": 786384,
      "componentType": 5126,
      "count": 65532,
      "max": [
        0.9999673366546631,
        0.9999728798866272,
        0.9999937415122986
      ],
      "min": [
        -0.9999726414680481,
        -0.9999729990959167,
        -0.999447762966156
      ],
      "type": "VEC3"
    },
    {
      "bufferView": 1,
      "componentType": 5126,
      "count": 65532,
      "max": [
        0.965158998966217,
        0.9978079795837402
      ],
      "min": [
        0.008151999674737453,
        0.008105999790132046
      ],
      "type": "VEC2"
    },
    {
      "bufferView": 0,
      "componentType": 5125,
      "count": 351804,
      "type": "SCALAR"
    },
    {
      "bufferView": 2,
      "byteOffset": 1572768,
      "componentType": 5126,
      "count": 65534,
      "max": [
        3.3712949752807617,
        26.241724014282227,
        0.15306800603866577
      ],
      "min": [
        -14.338842391967773,
        5.4180498123168945,
        -15.666177749633789
      ],
      "type": "VEC3"
    },
    {
      "bufferView": 2,
      "byteOffset": 2359176,
      "componentType": 5126,
      "count": 65534,
      "max": [
        0.9999970197677612,
        0.9999923706054688,
        0.9999635219573975
      ],
      "min": [
        -0.9999927878379822,
        -0.9995733499526978,
        -0.9954459071159363
      ],
      "type": "VEC3"
    },
    {
      "bufferView": 1,
      "byteOffset": 524256,
      "componentType": 5126,
      "count": 65534,
      "max": [
        0.9999880194664001,
        0.9979889988899231
      ],
      "min": [
        1.8999999156221747e-05,
        0.0006399999838322401
      ],
      "type": "VEC2"
    },
    {
      "bufferView": 0,
      "byteOffset": 1407216,
      "componentType": 5125,
      "count": 347652,
      "type": "SCALAR"
    },
    {
      "bufferView": 2,
      "byteOffset": 3145584,
      "componentType": 5126,
      "count": 65532,
      "max": [
        5.608605861663818,
        30.013751983642578,
        -3.3332738876342773
      ],
      "min": [
        -9.102954864501953,
        4.11306095123291,
        -17.578853607177734
      ],
      "type": "VEC3"
    },
    {
      "bufferView": 2,
      "byteOffset": 3931968,
      "componentType": 5126,
      "count": 65532,
      "max": [
        0.9999356269836426,
        0.9999488592147827,
        0.9999925494194031
      ],
      "min": [
        -0.9999577403068542,
        -0.9999986290931702,
        -0.9977872371673584
      ],
      "type": "VEC3"
    },
    {
      "bufferView": 1,
      "byteOffset": 1048528,
      "componentType": 5126,
      "count": 65532,
      "max": [
        0.999970018863678,
        0.9993659853935242
      ],
      "min": [
        1.2000000424450263e-05,
        7.999999979801942e-06
      ],
      "type": "VEC2"
    },
    {
      "bufferView": 0,
      "byteOffset": 2797824,
      "componentType": 5125,
      "count": 348339,
      "type": "SCALAR"
    },
    {
      "bufferView": 2,
      "byteOffset": 4718352,
      "componentType": 5126,
      "count": 65532,
      "max": [
        9.088238716125488,
        31.43589210510254,
        5.829044818878174
      ],
      "min": [
        -15.368037223815918,
        2.1899209022521973,
        -16.617656707763672
      ],
      "type": "VEC3"
    },
    {
      "bufferView": 2,
      "byteOffset": 5504736,
      "componentType": 5126,
      "count": 65532,
      "max": [
        0.9999998807907104,
        0.9999796152114868,
        0.9999316334724426
      ],
      "min": [
        -0.9999638795852661,
        -0.999913215637207,
        -0.9995089769363403
      ],
      "type": "VEC3"
    },
    {
      "bufferView": 1,
      "byteOffset": 1572784,
      "componentType": 5126,
      "count": 65532,
      "max": [
        0.999983012676239,
        0.9999060034751892
      ],
      "min": [
        0.0001880000054370612,
        3.199999991920777e-05
      ],
      "type": "VEC2"
    },
    {
      "bufferView": 0,
      "byteOffset": 4191180,
      "componentType": 5125,
      "count": 341571,
      "type": "SCALAR"
    },
    {
      "bufferView": 2,
      "byteOffset": 6291120,
      "componentType": 5126,
      "count": 65532,
      "max": [
        5.481269836425781,
        24.777780532836914,
        2.6027989387512207
      ],
      "min": [
        -14.821199417114258,
        6.236453056335449,
        -16.355043411254883
      ],
      "type": "VEC3"
    },
    {
      "bufferView": 2,
      "byteOffset": 7077504,
      "componentType": 5126,
      "count": 65532,
      "max": [
        0.9999970197677612,
        0.9999557733535767,
        0.9999876618385315
      ],
      "min": [
        -0.9999340176582336,
        -0.999958336353302,
        -0.9994730949401855
      ],
      "type": "VEC3"
    },
    {
      "bufferView": 1,
      "byteOffset": 2097040,
      "componentType": 5126,
      "count": 65532,
      "max": [
        0.9999600052833557,
        0.9999319911003113
      ],
      "min": [
        1.8999999156221747e-05,
        0.0005179999861866236
      ],
      "type": "VEC2"
    },
    {
      "bufferView": 0,
      "byteOffset": 5557464,
      "componentType": 5125,
      "count": 336774,
      "type": "SCALAR"
    },
    {
      "bufferView": 2,
      "byteOffset": 7863888,
      "componentType": 5126,
      "count": 41826,
      "max": [
        4.126094818115234,
        27.859426498413086,
        2.681627035140991
      ],
      "min": [
        -12.267215728759766,
        7.751615047454834,
        -16.258222579956055
      ],
      "type": "VEC3"
    },
    {
      "bufferView": 2,
      "byteOffset": 8365800,
      "componentType": 5126,
      "count": 41826,
      "max": [
        0.9999580979347229,
        0.9999923706054688,
        0.9999775290489197
      ],
      "min": [
        -0.9998424649238586,
        -1.0,
        -0.9999334812164307
      ],
      "type": "VEC3"
    },
    {
      "bufferView": 1,
      "byteOffset": 2621296,
      "componentType": 5126,
      "count": 41826,
      "max": [
        0.9999909996986389,
        0.9999709725379944
      ],
      "min": [
        6.000000212225132e-06,
        0.00011000000085914508
      ],
      "type": "VEC2"
    },
    {
      "bufferView": 0,
      "byteOffset": 6904560,
      "componentType": 5125,
      "count": 199032,
      "type": "SCALAR"
    }
  ],
  "asset": {
    "extras": {
      "author": "Archéomatique (https://sketchfab.com/archeomatique)",
      "license": "CC-BY-NC-4.0 (http://creativecommons.org/licenses/by-nc/4.0/)",
      "source": "https://sketchfab.com/3d-models/hohenecken-castle-germany-4b50b66585d1419da7aa9e6245962c33",
      "title": "Hohenecken castle, Germany"
    },
    "generator": "Sketchfab-13.36.0",
    "version": "2.0"
  },
  "bufferViews": [
    {
      "buffer": 0,
      "byteLength": 7700688,
      "name": "floatBufferViews",
      "target": 34963
    },
    {
      "buffer": 0,
      "byteLength": 2955904,
      "byteOffset": 7700688,
      "byteStride": 8,
      "name": "floatBufferViews",
      "target": 34962
    },
    {
      "buffer": 0,
      "byteLength": 8867712,
      "byteOffset": 10656592,
      "byteStride": 12,
      "name": "floatBufferViews",
      "target": 34962
    }
  ],
  "buffers": [
    {
      "byteLength": 19524304,
      "uri": "scene.bin"
    }
  ],
  "extensionsUsed": [
    "KHR_materials_unlit"
  ],
  "images": [
    {
      "uri": "textures/hohenenburg.1001_baseColor.jpeg"
    }
  ],
  "materials": [
    {
      "doubleSided": true,
      "extensions": {
        "KHR_materials_unlit": {}
      },
      "name": "hohenenburg.1001",
      "pbrMetallicRoughness": {
        "baseColorTexture": {
          "index": 0
        },
        "metallicFactor": 0.0
      }
    }
  ],
  "meshes": [
    {
      "name": "Object_0",
      "primitives": [
        {
          "attributes": {
            "NORMAL": 1,
            "POSITION": 0,
            "TEXCOORD_0": 2
          },
          "indices": 3,
          "material": 0,
          "mode": 4
        }
      ]
    },
    {
      "name": "Object_1",
      "primitives": [
        {
          "attributes": {
            "NORMAL": 5,
            "POSITION": 4,
            "TEXCOORD_0": 6
          },
          "indices": 7,
          "material": 0,
          "mode": 4
        }
      ]
    },
    {
      "name": "Object_2",
      "primitives": [
        {
          "attributes": {
            "NORMAL": 9,
            "POSITION": 8,
            "TEXCOORD_0": 10
          },
          "indices": 11,
          "material": 0,
          "mode": 4
        }
      ]
    },
    {
      "name": "Object_3",
      "primitives": [
        {
          "attributes": {
            "NORMAL": 13,
            "POSITION": 12,
            "TEXCOORD_0": 14
          },
          "indices": 15,
          "material": 0,
          "mode": 4
        }
      ]
    },
    {
      "name": "Object_4",
      "primitives": [
        {
          "attributes": {
            "NORMAL": 17,
            "POSITION": 16,
            "TEXCOORD_0": 18
          },
          "indices": 19,
          "material": 0,
          "mode": 4
        }
      ]
    },
    {
      "name": "Object_5",
      "primitives": [
        {
          "attributes": {
            "NORMAL": 21,
            "POSITION": 20,
            "TEXCOORD_0": 22
          },
          "indices": 23,
          "material": 0,
          "mode": 4
        }
      ]
    }
  ],
  "nodes": [
    {
      "children": [
        1
      ],
      "matrix": [
        0.8620370626449585,
        0.0025624567642806833,
        0.5068387985229492,
        0.0,
        0.4784086346626282,
        0.3261282444000246,
        -0.8153315186500548,
        0.0,
        -0.16738370060920715,
        0.945322036743164,
        0.279908746480942,
        0.0,
        0.0,
        0.0,
        0.0,
        1.0
      ],
      "name": "Sketchfab_model"
    },
    {
      "children": [
        2,
        3,
        4,
        5,
        6,
        7
      ],
      "name": "hohenenburg.obj.cleaner.materialmerger.gles"
    },
    {
      "mesh": 0,
      "name": "Object_2"
    },
    {
      "mesh": 1,
      "name": "Object_3"
    },
    {
      "mesh": 2,
      "name": "Object_4"
    },
    {
      "mesh": 3,
      "name": "Object_5"
    },
    {
      "mesh": 4,
      "name": "Object_6"
    },
    {
      "mesh": 5,
      "name": "Object_7"
    }
  ],
  "samplers": [
    {
      "magFilter": 9729,
      "minFilter": 9987,
      "wrapS": 10497,
      "wrapT": 10497
    }
  ],
  "scene": 0,
  "scenes": [
    {
      "name": "Sketchfab_Scene",
      "nodes": [
        0
      ]
    }
  ],
  "textures": [
    {
      "sampler": 0,
      "source": 0
    }
  ]
}
